<?xml version="1.0" ?>
<!DOCTYPE svg  PUBLIC '-//W3C//DTD SVG 1.1//EN'  'http://www.w3.org/Graphics/SVG/1.1/DTD/svg11.dtd'>
<!-- Uploaded to: SVG Repo, www.svgrepo.com, Generator: SVG Repo Mixer Tools -->
<svg fill="#000000" width="800px" height="800px" viewBox="0 0 512 512" enable-background="new 0 0 512 512" id="Eat_x5F_less_x5F_sugar" version="1.1" xml:space="preserve" xmlns="http://www.w3.org/2000/svg" xmlns:xlink="http://www.w3.org/1999/xlink">
<g>
<rect height="9.527" width="9.528" x="162.055" y="228.492"/>
<rect height="9.527" width="9.528" x="211.021" y="217.188"/>
<rect height="9.527" width="9.527" x="141.579" y="184.865"/>
<rect height="9.527" width="9.528" x="206.257" y="137.389"/>
<rect height="9.527" width="9.528" x="143.562" y="54.828"/>
<rect height="126.974" width="10" x="392.906" y="49.511"/>
<rect height="126.974" width="10" x="424.947" y="49.511"/>
<polygon points="434.947,396.766 434.947,194.512 424.947,194.512 424.947,406.766 446.344,406.766 413.795,449.168    381.254,406.766 402.922,406.766 402.922,194.512 392.922,194.512 392.922,396.766 360.975,396.766 413.795,465.592    466.627,396.766  "/>
<path d="M235.768,117.751c-1.275,8.622,0.883,17.225,6.078,24.224c5.194,6.999,12.804,11.556,21.425,12.831   c1.619,0.24,3.238,0.358,4.846,0.358c2.123,0,4.221-0.231,6.281-0.639l2.383,40.389l22.479,2.772l2.285-13.512l13.6,1.677   l2.285-13.512l13.602,1.676l3.773-22.318l-37.896-13.951c5.652-10.759,5.057-24.273-2.658-34.668   c-7.873-10.605-21-15.049-33.141-12.426l-2.447-41.472l-22.48-2.772l-2.283,13.512l-13.6-1.677l-2.284,13.512l-13.601-1.676   l-3.774,22.318l38.859,14.306C237.626,110.087,236.351,113.811,235.768,117.751z M264.736,144.914   c-5.98-0.885-11.258-4.045-14.861-8.899c-3.603-4.854-5.1-10.82-4.215-16.801c0.175-1.181,0.463-2.323,0.811-3.441   c1.97,5.403,5.196,11.078,8.945,16.129c3.75,5.052,8.246,9.783,12.849,13.233C267.094,145.144,265.916,145.088,264.736,144.914z    M323.561,158.214l-0.795,4.708l-13.602-1.676l-2.285,13.511l-13.6-1.677l-2.285,13.512l-4.721-0.583l-2.074-35.152   c1.129-0.646,2.236-1.341,3.297-2.128c1.111-0.823,2.145-1.712,3.119-2.644L323.561,158.214z M254.604,104.413   c2.125-0.163,9.857,3.666,18.044,14.697c1.551,2.09,2.955,4.232,4.174,6.368l8.686-4.956c-1.416-2.481-3.041-4.962-4.83-7.371   c-3.969-5.348-8.461-9.938-12.889-13.239c0.076,0,0.152-0.009,0.23-0.009c6.924,0,13.766,3.16,18.201,9.135   c4.475,6.03,5.473,13.568,3.393,20.242c-0.42-1.161-0.898-2.351-1.453-3.575l-9.113,4.118c2.697,5.969,2.82,9.712,2.439,10.816   c-2.133,0.115-9.859-3.676-18.041-14.698C255.256,114.908,253.843,106.404,254.604,104.413z M211.883,85.881l0.796-4.707   l13.602,1.676l2.284-13.512l13.601,1.678l2.283-13.512l4.721,0.582l1.958,33.181L240.503,76.95l-8.03,5.96l10.776,14.519   L211.883,85.881z"/>
<path d="M69.588,147.593v34.659l30.016,17.33l30.016-17.33v-34.659l-30.016-17.329L69.588,147.593z M94.604,185.148l-15.016-8.67   V159.14l15.016,8.67V185.148z M119.62,176.479l-15.016,8.67V167.81l15.016-8.67V176.479z M99.604,159.149l-15.016-8.67   l15.016-8.669l15.016,8.669L99.604,159.149z"/>
<path d="M178.115,149.608l17.33-30.016l-17.33-30.016h-34.659l-17.33,30.016l17.33,30.016H178.115z M172.341,139.608h-17.339   l8.669-15.016h17.339L172.341,139.608z M172.341,99.577l8.669,15.016h-17.339l-8.669-15.016H172.341z M146.342,104.577   l8.669,15.016l-8.669,15.016l-8.669-15.016L146.342,104.577z"/>
<path d="M116.665,119.085l8.97-33.479l-24.508-24.508l-33.479,8.971l-8.97,33.478l24.508,24.508L116.665,119.085z M102.221,76.334   l12.26,12.261l-4.488,16.748l-12.26-12.261L102.221,76.334z M75.813,78.234l16.749-4.488l-4.488,16.748l-16.749,4.488   L75.813,78.234z M90.662,100.153l12.26,12.261l-16.748,4.487l-12.26-12.26L90.662,100.153z"/>
<path d="M216.021,301.826v-27.726c26.188-0.511,50.397-2.18,69.47-4.829c35.107-4.877,39.947-11.008,39.947-16.904v-18.486h-0.002   c-0.004-6.589-7.217-10.754-24.898-14.375c-13.27-2.719-31.596-4.83-53.052-6.123c-15.25-10.898-33.228-20.656-48.714-20.656   c-15.511,0-34.396,9.831-50.603,20.766c-20.98,1.327-38.863,3.444-51.77,6.14c-17.025,3.555-24.291,7.816-24.293,14.249h-0.001   v18.486c0,5.896,4.839,12.027,39.947,16.904c19.072,2.649,43.282,4.318,69.469,4.829v27.726H96.649L45.373,424.771v37.608H352.17   v-37.607L300.98,301.826H216.021z M313.979,233.876c-3.826,1.945-13.68,4.961-33.646,7.506c-2.771-2.786-9.578-9.437-18.6-16.957   C294.652,227.188,309.145,231.395,313.979,233.876z M198.771,202.727c22.968,0,54.698,27.068,68.628,40.086   c-20.052,1.926-43.915,2.972-68.623,2.972c-26.169,0-51.201-1.161-71.87-3.295C142.268,229.266,175.944,202.727,198.771,202.727z    M132.804,224.686c-9.062,7.068-16.045,13.316-19.198,16.217c-19.192-2.65-26.978-5.471-30.016-7.035   C88.295,231.47,102.044,227.452,132.804,224.686z M118.115,259.984c-24.054-3.002-33.775-6.701-36.011-8.52v-7.312   c6.305,2.498,16.418,4.867,32.53,6.979c22.849,3,52.73,4.651,84.141,4.651c32.716,0,63.512-1.774,86.715-4.998   c14.629-2.033,23.99-4.283,29.947-6.643v7.322c-2.236,1.818-11.957,5.518-36.012,8.52c-22.146,2.764-50.791,4.285-80.655,4.285   S140.262,262.748,118.115,259.984z M206.021,274.27v27.557h-14.5V274.27H206.021z M342.17,430.297v22.083H55.373v-22.083h16.409   v-10H58.074l45.239-108.471h78.208h34.5h78.292l45.162,108.471H84.781v10H342.17z"/>
<path d="M198.771,407.867c22.423,0,40.667-18.244,40.667-40.667s-18.243-40.667-40.667-40.667s-40.667,18.244-40.667,40.667   S176.347,407.867,198.771,407.867z M198.771,336.533c16.91,0,30.667,13.758,30.667,30.667s-13.757,30.667-30.667,30.667   s-30.667-13.758-30.667-30.667S181.861,336.533,198.771,336.533z"/>
<rect height="23.917" width="10" x="193.771" y="343.283"/>
</g>
</svg>