<?xml version="1.0" encoding="iso-8859-1"?>
<!-- Uploaded to: SVG Repo, www.svgrepo.com, Generator: SVG Repo Mixer Tools -->
<!DOCTYPE svg PUBLIC "-//W3C//DTD SVG 1.1//EN" "http://www.w3.org/Graphics/SVG/1.1/DTD/svg11.dtd">
<svg fill="#000000" height="800px" width="800px" version="1.1" id="Capa_1" xmlns="http://www.w3.org/2000/svg" xmlns:xlink="http://www.w3.org/1999/xlink" 
	 viewBox="0 0 456.51 456.51" xml:space="preserve">
<path d="M319.349,389.262H137.161c-50.469,0-102.489-41.354-115.962-92.186L4.413,231.455C1.547,222.292,0,212.547,0,202.451
	c0-53.653,43.648-97.303,97.299-97.303h53.816c5.522,0,10,4.478,10,10s-4.478,10-10,10H97.299C54.676,125.149,20,159.825,20,202.45
	c0,7.725,1.14,15.19,3.258,22.233c0.135,0.354,0.251,0.72,0.348,1.095l0.036,0.144c9.959,31.186,39.214,53.832,73.657,53.832H359.21
	c34.441,0,63.695-22.645,73.656-53.826l0.038-0.149c0.097-0.377,0.214-0.744,0.35-1.1c2.117-7.041,3.256-14.505,3.256-22.227
	c0-42.625-34.677-77.303-77.3-77.303h-74.882c-5.522,0-10-4.478-10-10s4.478-10,10-10h74.882c53.651,0,97.3,43.649,97.3,97.301
	c0,10.096-1.544,19.834-4.411,28.997l-16.766,65.546C421.838,347.908,369.817,389.262,319.349,389.262z M37.199,278.922
	l3.354,13.113c11.085,41.823,55.336,77.227,96.607,77.227h182.188c41.271,0,85.522-35.403,96.63-77.311l3.333-13.03
	c-16.558,13.042-37.438,20.832-60.102,20.832H97.299C74.636,299.753,53.757,291.964,37.199,278.922z M217.511,257.068
	c-9.89,0.001-19.851-3.998-27.085-10.969c-4.011-3.866-9.69-6.031-14.839-5.667c-3.697,0.267-6.623,1.753-8.696,4.416
	c-0.006,0.007-0.011,0.014-0.016,0.021c-5.53,7.126-13.775,11.425-23.216,12.105c-10.714,0.775-21.819-3.292-29.688-10.875
	c-4.011-3.867-9.693-6.031-14.838-5.667c-3.706,0.267-6.638,1.759-8.712,4.434c-3.385,4.366-9.666,5.159-14.03,1.774
	s-5.159-9.666-1.774-14.03c5.542-7.146,13.738-11.453,23.078-12.126c10.816-0.78,22.066,3.415,30.156,11.216
	c3.788,3.65,9.291,5.697,14.369,5.326c2.621-0.188,6.285-1.108,8.854-4.419c0.008-0.011,0.016-0.021,0.024-0.03
	c5.541-7.125,13.725-11.42,23.048-12.093c10.783-0.781,22.064,3.412,30.159,11.214c3.791,3.653,9.303,5.696,14.371,5.328
	c2.62-0.188,6.281-1.108,8.848-4.417c0.008-0.011,0.017-0.021,0.024-0.032c5.542-7.127,13.728-11.421,23.054-12.093
	c10.781-0.781,22.065,3.414,30.158,11.215c3.976,3.833,4.092,10.163,0.259,14.14c-3.833,3.976-10.164,4.092-14.14,0.259
	c-4.01-3.866-9.688-6.031-14.839-5.665c-3.699,0.267-6.627,1.753-8.701,4.419c-0.004,0.005-0.009,0.011-0.013,0.016
	c-5.527,7.126-13.771,11.426-23.21,12.107C219.251,257.036,218.38,257.068,217.511,257.068z M217.677,213.963
	c-9.89,0-19.852-3.998-27.085-10.969c-4.011-3.867-9.698-6.034-14.838-5.667c-3.706,0.267-6.638,1.759-8.712,4.434
	c-3.385,4.366-9.666,5.159-14.03,1.774s-5.159-9.666-1.774-14.03c5.542-7.146,13.738-11.453,23.078-12.126
	c10.807-0.774,22.066,3.414,30.156,11.216c3.788,3.65,9.285,5.685,14.369,5.327c2.62-0.189,6.281-1.108,8.85-4.415
	c0.001-0.001,0.002-0.002,0.002-0.002c5.541-7.146,13.736-11.452,23.074-12.126c10.793-0.777,22.065,3.413,30.159,11.214
	c3.79,3.652,9.31,5.701,14.371,5.328c2.62-0.188,6.281-1.108,8.848-4.417c0.008-0.011,0.017-0.021,0.024-0.032
	c5.542-7.127,13.728-11.421,23.054-12.093c10.785-0.775,22.065,3.413,30.158,11.215c3.976,3.833,4.092,10.163,0.259,14.14
	c-3.833,3.976-10.164,4.093-14.14,0.259c-4.01-3.865-9.681-6.036-14.839-5.665c-3.699,0.267-6.627,1.753-8.701,4.419
	c-0.004,0.005-0.009,0.011-0.013,0.016c-5.527,7.126-13.771,11.426-23.21,12.107c-10.724,0.771-21.821-3.292-29.69-10.875
	c-4.013-3.867-9.704-6.034-14.84-5.667c-3.697,0.267-6.623,1.753-8.696,4.416c-0.006,0.007-0.011,0.014-0.016,0.021
	c-5.53,7.126-13.775,11.426-23.216,12.106C219.414,213.932,218.545,213.963,217.677,213.963z M232.867,163.046
	c-2.551,0-5.101-0.969-7.052-2.909c-3.916-3.895-3.934-10.227-0.039-14.143c6.35-6.385,5.951-22.123-0.79-31.185
	c-0.007-0.009-0.014-0.019-0.021-0.027c-8.044-10.833-11.409-26.383-8.574-39.626c1.156-5.399,6.467-8.843,11.872-7.685
	c5.4,1.156,8.841,6.472,7.685,11.872c-1.658,7.746,0.38,17.191,5.073,23.513c0.004,0.005,0.008,0.011,0.012,0.016
	c11.301,15.191,13.639,42.43-1.075,57.226C238.004,162.063,235.436,163.046,232.867,163.046z M192.082,163.043
	c-2.551,0-5.101-0.97-7.052-2.91c-3.916-3.895-3.933-10.227-0.038-14.142c6.346-6.38,5.949-22.101-0.781-31.165
	c-0.005-0.006-0.01-0.013-0.015-0.019c-8.056-10.836-11.428-26.4-8.591-39.651c1.156-5.399,6.467-8.843,11.872-7.685
	c5.4,1.156,8.841,6.472,7.685,11.872c-1.658,7.744,0.38,17.189,5.07,23.512c0.004,0.005,0.008,0.011,0.012,0.016
	c11.304,15.191,13.644,42.43-1.072,57.224C197.218,162.06,194.649,163.043,192.082,163.043z"/>
</svg>