<?xml version="1.0" encoding="utf-8"?>

<!DOCTYPE svg PUBLIC "-//W3C//DTD SVG 1.1//EN" "http://www.w3.org/Graphics/SVG/1.1/DTD/svg11.dtd">
<!-- Uploaded to: SVG Repo, www.svgrepo.com, Generator: SVG Repo Mixer Tools -->
<svg height="800px" width="800px" version="1.1" id="_x32_" xmlns="http://www.w3.org/2000/svg" xmlns:xlink="http://www.w3.org/1999/xlink" 
	 viewBox="0 0 512 512"  xml:space="preserve">
<style type="text/css">
	.st0{fill:#000000;}
</style>
<g>
	<path class="st0" d="M471.58,130.455H40.421C18.095,130.455,0,148.55,0,170.876v280.244c0,22.326,18.095,40.42,40.421,40.42H471.58
		c22.326,0,40.42-18.095,40.42-40.42V170.876C512,148.55,493.905,130.455,471.58,130.455z M487.748,451.121
		c0,8.921-7.251,16.168-16.168,16.168H40.421c-8.917,0-16.168-7.247-16.168-16.168V170.876c0-8.921,7.252-16.168,16.168-16.168
		H471.58c8.917,0,16.168,7.248,16.168,16.168V451.121z"/>
	<path class="st0" d="M190.782,85.559c0.008-8.652,3.466-16.326,9.126-22.026c5.692-5.653,13.366-9.111,22.026-9.119h68.13
		c8.661,0.008,16.334,3.466,22.026,9.119c5.661,5.7,9.111,13.374,9.127,22.026v25.184h33.947V85.559
		c-0.008-35.96-29.139-65.084-65.1-65.1h-68.13c-35.96,0.016-65.092,29.139-65.099,65.1v25.184h33.947V85.559z"/>
	<path class="st0" d="M397.452,282.822c-3.118-2.352-7.428-2.352-10.547,0l-15.726,11.937h-0.016l-15.715-11.921
		c-3.122-2.369-7.436-2.361-10.558,0l-10.374,7.862c-3.142,2.385-7.496,2.353-10.627-0.047l-26.162-20.258
		c-1.532-1.192-3.419-1.847-5.357-1.847h-31.424c-16.231-33.458-50.53-56.526-90.224-56.526
		c-55.361,0-100.234,44.858-100.234,100.231c0,55.342,44.873,100.222,100.234,100.222c45.067,0,83.178-29.739,95.79-70.673H423.69
		c2.803,0,5.444-1.342,7.086-3.615l9.082-12.585c2.78-3.852,1.974-9.229-1.816-12.086L397.452,282.822z M120.283,332.559
		c-11.581,0-20.976-9.394-20.976-20.96c0-11.59,9.394-20.984,20.976-20.984c11.566,0,20.961,9.394,20.961,20.984
		C141.244,323.164,131.856,332.559,120.283,332.559z M409.733,322.785H270.396c0.367-3.474,0.561-6.979,0.561-10.531h138.776
		V322.785z"/>
</g>
</svg>