<?xml version="1.0" encoding="iso-8859-1"?>
<!-- Uploaded to: SVG Repo, www.svgrepo.com, Generator: SVG Repo Mixer Tools -->
<svg height="800px" width="800px" version="1.1" id="Layer_1" xmlns="http://www.w3.org/2000/svg" xmlns:xlink="http://www.w3.org/1999/xlink" 
	 viewBox="0 0 512 512" xml:space="preserve">
<polygon style="fill:#CCC2B8;" points="370.746,223.008 394.37,269.832 117.629,269.832 141.253,223.008 "/>
<path style="fill:#FFF3E6;" d="M352.689,187.213l18.057,35.795H141.253l18.057-35.795c12.051-23.89,36.526-38.957,63.273-38.957
	h0.199h66.435h0.199C316.163,148.256,340.638,163.323,352.689,187.213z"/>
<path style="fill:#CCC2B8;" d="M289.217,46.504v101.752h-66.435V46.504c0-18.336,14.881-33.217,33.217-33.217
	c9.168,0,17.486,3.72,23.491,9.739C285.497,29.032,289.217,37.336,289.217,46.504z"/>
<path d="M309.812,209.721h-3.986c-7.337,0-13.287,5.949-13.287,13.287s5.95,13.287,13.287,13.287h3.986
	c7.337,0,13.287-5.949,13.287-13.287S317.149,209.721,309.812,209.721z"/>
<path d="M392.332,236.295h2.038c7.337,0,13.287-5.949,13.287-13.287s-5.95-13.287-13.287-13.287h-15.445l-14.372-28.491
	c-12.397-24.574-35.472-41.121-62.047-45.242V46.504c0-12.418-4.836-24.092-13.607-32.861C280.12,4.844,268.438,0,256,0
	c-25.643,0-46.504,20.862-46.504,46.504v89.482c-26.575,4.123-49.652,20.668-62.046,45.242l-14.374,28.493h-15.433
	c-7.337,0-13.287,5.949-13.287,13.287s5.95,13.287,13.287,13.287h2.025l-13.901,27.552c-2.078,4.119-1.871,9.022,0.547,12.951
	c2.417,3.929,6.701,6.322,11.315,6.322h97.863c-0.003,0.116-0.017,0.229-0.017,0.345v23.917c0,7.338,5.95,13.287,13.287,13.287
	s13.287-5.949,13.287-13.287v-23.917c0-0.117-0.015-0.23-0.017-0.345h82.414c-0.003,0.116-0.017,0.229-0.017,0.345v23.917
	c0,7.338,5.95,13.287,13.287,13.287s13.287-5.949,13.287-13.287v-23.917c0-0.117-0.015-0.23-0.017-0.345h43.386
	c4.615,0,8.897-2.393,11.315-6.322c2.418-3.929,2.627-8.831,0.547-12.951L392.332,236.295z M236.069,46.504
	c0-10.99,8.941-19.93,19.93-19.93c5.328,0,10.329,2.073,14.096,5.848c3.762,3.763,5.834,8.763,5.834,14.083v88.465h-39.861V46.504z
	 M139.215,256.545l10.215-20.249h117.53c7.337,0,13.287-5.949,13.287-13.287s-5.95-13.287-13.287-13.287H162.837l8.336-16.525
	c9.848-19.525,29.546-31.654,51.407-31.654h0.199h66.435h0.199c21.861,0,41.559,12.128,51.409,31.655l8.336,16.524h-2.81
	c-7.337,0-13.287,5.949-13.287,13.287c0,7.338,5.95,13.287,13.287,13.287h16.217l10.215,20.249L139.215,256.545L139.215,256.545z"/>
<path d="M337.715,345.913c-7.337,0-13.287,5.949-13.287,13.287v23.917c0,7.338,5.95,13.287,13.287,13.287
	s13.287-5.949,13.287-13.287V359.2C351.002,351.861,345.052,345.913,337.715,345.913z"/>
<path d="M337.715,421.649c-7.337,0-13.287,5.949-13.287,13.287v23.917c0,7.338,5.95,13.287,13.287,13.287
	s13.287-5.949,13.287-13.287v-23.917C351.002,427.597,345.052,421.649,337.715,421.649z"/>
<path d="M283.238,310.038c-7.337,0-13.287,5.949-13.287,13.287v23.917c0,7.338,5.95,13.287,13.287,13.287
	s13.287-5.949,13.287-13.287v-23.917C296.525,315.987,290.575,310.038,283.238,310.038z"/>
<path d="M283.238,385.774c-7.337,0-13.287,5.949-13.287,13.287v23.917c0,7.338,5.95,13.287,13.287,13.287
	s13.287-5.949,13.287-13.287v-23.917C296.525,391.722,290.575,385.774,283.238,385.774z"/>
<path d="M283.238,461.51c-7.337,0-13.287,5.949-13.287,13.287v23.917c0,7.338,5.95,13.287,13.287,13.287s13.287-5.949,13.287-13.287
	v-23.917C296.525,467.458,290.575,461.51,283.238,461.51z"/>
<path d="M228.761,345.913c-7.337,0-13.287,5.949-13.287,13.287v23.917c0,7.338,5.95,13.287,13.287,13.287
	s13.287-5.949,13.287-13.287V359.2C242.048,351.861,236.099,345.913,228.761,345.913z"/>
<path d="M228.761,421.649c-7.337,0-13.287,5.949-13.287,13.287v23.917c0,7.338,5.95,13.287,13.287,13.287
	s13.287-5.949,13.287-13.287v-23.917C242.048,427.597,236.099,421.649,228.761,421.649z"/>
<path d="M174.285,310.038c-7.337,0-13.287,5.949-13.287,13.287v23.917c0,7.338,5.95,13.287,13.287,13.287
	s13.287-5.949,13.287-13.287v-23.917C187.572,315.987,181.622,310.038,174.285,310.038z"/>
<path d="M174.285,385.774c-7.337,0-13.287,5.949-13.287,13.287v23.917c0,7.338,5.95,13.287,13.287,13.287
	s13.287-5.949,13.287-13.287v-23.917C187.572,391.722,181.622,385.774,174.285,385.774z"/>
<path d="M174.285,461.51c-7.337,0-13.287,5.949-13.287,13.287v23.917c0,7.338,5.95,13.287,13.287,13.287s13.287-5.949,13.287-13.287
	v-23.917C187.572,467.458,181.622,461.51,174.285,461.51z"/>
</svg>