<?xml version="1.0" ?>
<!-- Uploaded to: SVG Repo, www.svgrepo.com, Generator: SVG Repo Mixer Tools -->
<svg width="800px" height="800px" viewBox="0 0 24 24" version="1.1" xml:space="preserve" xmlns="http://www.w3.org/2000/svg" xmlns:xlink="http://www.w3.org/1999/xlink">
<style type="text/css">
	.st0{opacity:0.2;fill:none;stroke:#000000;stroke-width:5.000000e-02;stroke-miterlimit:10;}
</style>
<g id="Layer_Grid"/>
<g id="Layer_2">
<path d="M11.7,8.2C11.7,5.9,9.8,4,7.5,4C6.3,4,5.2,4.5,4.4,5.4c-0.8,0.9-1.2,2-1.1,3.2l0.6,7.7C4,17.8,5.3,19,6.8,19h1.3   c1.6,0,2.9-1.2,3-2.8l0.6-7.6C11.7,8.5,11.7,8.4,11.7,8.2z M9.1,16.1c0,0.5-0.5,0.9-1,0.9H6.8c-0.5,0-1-0.4-1-0.9l-0.1-1.4   c0.1-0.1,0.1-0.2,0.2-0.3l1.9-4.9C7.9,9.4,8,9.4,8.1,9.4c0,0,0.1,0,0.2,0L9,13.2c0,0.2,0.2,0.4,0.3,0.5L9.1,16.1z M8,7.4   c-0.8,0-1.6,0.5-2,1.3l-0.6,1.6L5.3,8.4c0-0.6,0.2-1.2,0.6-1.7C6.3,6.3,6.9,6,7.5,6c1.2,0,2.2,0.9,2.2,2.1C9.3,7.6,8.7,7.4,8,7.4z"/>
<path d="M18.7,6.3c-1.1-0.3-2.4-0.2-3.4,0.4c-1,0.6-1.7,1.6-2,2.8L11.7,17c-0.3,1.5,0.6,3.1,2.1,3.5l1.2,0.4   c0.3,0.1,0.6,0.1,0.8,0.1c1.2,0,2.4-0.7,2.8-1.9l0.2-0.6c0-0.1,0.1-0.2,0.1-0.3l2.4-6.3c0-0.1,0.1-0.2,0.1-0.3l-1-0.3l-1-0.3   c0,0,0,0.1-0.1,0.2l-0.6,1.6l0-1.2c0-0.8-0.5-1.6-1.2-2c-0.7-0.4-1.6-0.3-2.3,0.1c0,0-0.1,0.1-0.1,0.1c0.2-0.6,0.5-1,1-1.3   c0.4-0.2,0.7-0.3,1.1-0.3c0.2,0,0.4,0,0.7,0.1c1.2,0.4,1.9,1.6,1.5,2.8l1,0.3l1,0.3c0,0,0,0,0,0C22.2,9.4,20.9,7,18.7,6.3z    M16.6,11.3c0.1,0,0.1,0,0.2,0c0.1,0,0.1,0.1,0.1,0.2l0.1,6.2l-0.2,0.6c-0.2,0.5-0.7,0.8-1.2,0.6l-1.2-0.4   c-0.5-0.2-0.8-0.7-0.7-1.2l0.7-3.1L16.6,11.3z"/>
</g>
</svg>