<?xml version="1.0" ?><!-- Uploaded to: SVG Repo, www.svgrepo.com, Generator: SVG Repo Mixer Tools -->
<svg width="800px" height="800px" viewBox="0 0 2050 2050" data-name="Layer 3" id="Layer_3" xmlns="http://www.w3.org/2000/svg"><defs><style>.cls-1{fill:#e0e1e2;}.cls-2{fill:#1682fc;}.cls-3{fill:#2e3a58;}</style></defs><title/><polygon class="cls-1" points="1357 815 983.1 815 1019.5 754.4 1320.7 754.4 1357 815"/><path class="cls-2" d="M1357,820H983.1a15,15,0,0,1-12.8-22.7l36.3-60.6a14.9,14.9,0,0,1,12.9-7.3h301.2a14.7,14.7,0,0,1,12.8,7.3l36.4,60.6A15,15,0,0,1,1357,820Zm-347.4-30h321l-18.4-30.6H1028Z"/><path class="cls-2" d="M1477.3,1408.5l-129.5-260.4H1089.9v-30H1357a15.1,15.1,0,0,1,13.5,8.3l133.6,268.7Z"/><path class="cls-1" d="M1290.3,1583.1A90.7,90.7,0,0,1,1202,1513a90.6,90.6,0,1,0,176.6,0A90.7,90.7,0,0,1,1290.3,1583.1Z"/><path class="cls-1" d="M764.9,1624.1a325,325,0,1,1,229.8-95.2A322.7,322.7,0,0,1,764.9,1624.1Zm0-605a280,280,0,1,0,198,82A278.1,278.1,0,0,0,764.9,1019.1Z"/><circle class="cls-1" cx="764.9" cy="1299.1" r="57.9"/><rect class="cls-2" height="216.19" width="30" x="749.9" y="1025"/><rect class="cls-2" height="216.19" transform="translate(-742.6 1145.9) rotate(-60)" width="30" x="606.1" y="1108"/><rect class="cls-2" height="30" transform="translate(-607.8 495.7) rotate(-30)" width="216.2" x="513" y="1367.1"/><rect class="cls-2" height="216.19" width="30" x="749.9" y="1357"/><rect class="cls-2" height="216.19" transform="translate(-742.6 1478) rotate(-60)" width="30" x="893.6" y="1274"/><rect class="cls-2" height="30" transform="translate(-486.3 617.3) rotate(-30)" width="216.2" x="800.6" y="1201.1"/><path class="cls-1" d="M764.9,501.8H507.4a22.5,22.5,0,0,0-22.5,22.5h0a22.5,22.5,0,0,0,22.5,22.5h235V932h45V524.3A22.5,22.5,0,0,0,764.9,501.8Z"/><path class="cls-3" d="M802.4,932h-30V524.3a7.6,7.6,0,0,0-7.5-7.5H507.4a7.5,7.5,0,1,0,0,15h235a15,15,0,0,1,15,15V932h-30V561.8h-220a37.5,37.5,0,0,1,0-75H764.9a37.5,37.5,0,0,1,37.5,37.5Z"/><rect class="cls-3" height="52.78" width="30" x="579.4" y="494"/><path class="cls-3" d="M1303.7,1540.2l-26.8-13.5,65.1-129.3V820H787.4V790H1357a15,15,0,0,1,15,15v596a14.4,14.4,0,0,1-1.6,6.7Z"/><rect class="cls-1" height="68.46" width="149" x="1490.7" y="1333.3"/><path class="cls-2" d="M1639.7,1416.8h-149a15,15,0,0,1-15-15v-68.5a15,15,0,0,1,15-15h149a15,15,0,0,1,15,15v68.5A15,15,0,0,1,1639.7,1416.8Zm-134-30h119v-38.5h-119Z"/><path class="cls-2" d="M1290.3,1639.1a105.7,105.7,0,1,1,105.6-105.6A105.8,105.8,0,0,1,1290.3,1639.1Zm0-181.3a75.7,75.7,0,1,0,75.6,75.7A75.8,75.8,0,0,0,1290.3,1457.8Z"/><path class="cls-3" d="M764.9,1372a72.9,72.9,0,1,1,72.9-72.9A73,73,0,0,1,764.9,1372Zm0-115.8a42.9,42.9,0,1,0,42.9,42.9A42.9,42.9,0,0,0,764.9,1256.2Z"/><path class="cls-3" d="M764.9,1639.1c-90.8,0-176.2-35.3-240.4-99.6s-99.6-149.6-99.6-240.4,35.3-176.2,99.6-240.4a340,340,0,1,1,480.8,480.8C941.1,1603.8,855.7,1639.1,764.9,1639.1Zm0-650a310,310,0,1,0,219.2,90.8A307.7,307.7,0,0,0,764.9,989.1Zm0,605a295,295,0,1,1,208.6-86.4A293.1,293.1,0,0,1,764.9,1594.1Zm0-560a264.9,264.9,0,1,0,187.4,77.6A263,263,0,0,0,764.9,1034.1Z"/></svg>